# xmcd
#
# Track frame offsets:
#	150
#	17733
#	32948
#	50383
#	65580
#	80064
#	96068
#	114080
#	128212
#	147209
#
# Disc length: 2145 seconds
#
# Revision: 0
# Processed by: cddbd v1.5.2PL0 Copyright (c) Steve Scherf et al.
# Submitted via: FairStars CD Ripper 1.80
#
DISCID=83085f0a
DTITLE=Luca SAPIO - Everyday is gonna be the day
DYEAR=2014
DGENRE=Soul
TTITLE0=Someone
TTITLE1=Dark Shadows
TTITLE2=Tell it like it is
TTITLE3=Nobody Knows
TTITLE4=All Around Me
TTITLE5=Everyday (Is Gonna Be The Day)
TTITLE6=Lawbreakers (Making Rules)
TTITLE7=Let It Shine
TTITLE8=I'm So Tired
TTITLE9=I Was A Good Boy
EXTD=
EXTT0=
EXTT1=
EXTT2=
EXTT3=
EXTT4=
EXTT5=
EXTT6=
EXTT7=
EXTT8=
EXTT9=
PLAYORDER=
